<svg xmlns="http://www.w3.org/2000/svg" width="57.62" height="51.013" viewBox="0 0 57.62 51.013"><g transform="translate(15.594 16.651)"><rect width="8.722" height="16.123" fill="#fff"/></g><g transform="translate(32.774 16.651)"><rect width="8.722" height="16.123" fill="#fff"/></g><g transform="translate(8.722)"><path d="M43.21,12.687H36.867c0-1.586-.264-6.343-4.229-6.343H13.872c-3.965,0-4.229,4.758-4.229,6.343H3.3C3.3,6.343,6.472,0,13.872,0H32.9C40.039,0,43.21,6.343,43.21,12.687Z" transform="translate(-3.3)" fill="#a479b5"/></g><g transform="translate(0 16.651)"><path d="M49.161,6.3c0,2.907-.264,8.193-.529,11.894-.529,4.229-.793,8.722-1.85,12.422-2.114,1.057-9.515,2.114-18.237,2.114h0c-8.722,0-16.123-1.057-18.237-2.114-1.057-3.7-1.322-8.193-1.85-12.422,0-3.7-.264-8.986-.264-11.894H0c0,3.172.264,7.665.529,11.629.529,5.022,1.057,11.1,2.379,15.594,1.322,4.229,6.872,5.55,12.158,6.343a106.944,106.944,0,0,0,13.744.793h0a106.941,106.941,0,0,0,13.744-.793c5.286-.793,10.837-2.114,12.158-6.343,1.322-4.493,1.85-10.572,2.379-15.594.264-3.965.529-8.722.529-11.629H49.161Z" transform="translate(0 -6.3)" fill="#fff"/></g></svg>